# 3ds Max Wavefront OBJ Exporter v0.97b - (c)2007 guruware
# File Created: 06.12.2014 16:21:36

#
# object Torus001
#

v  -0.0000 -0.1882 1.8227
v  0.9104 -0.1882 1.5788
v  0.9788 0.0000 1.6973
v  -0.0000 0.0000 1.9595
v  -0.0000 -0.1163 1.6014
v  0.7997 -0.1163 1.3872
v  -0.0000 0.1163 1.6014
v  0.7997 0.1163 1.3872
v  -0.0000 0.1882 1.8227
v  0.9104 0.1882 1.5788
v  1.5768 -0.1882 0.9124
v  1.6953 0.0000 0.9807
v  1.3852 -0.1163 0.8017
v  1.3852 0.1163 0.8017
v  1.5768 0.1882 0.9124
v  1.8208 -0.1882 0.0020
v  1.9575 0.0000 0.0020
v  1.5995 -0.1163 0.0020
v  1.5995 0.1163 0.0020
v  1.8208 0.1882 0.0020
v  1.5768 -0.1882 -0.9084
v  1.6953 0.0000 -0.9768
v  1.3852 -0.1163 -0.7977
v  1.3852 0.1163 -0.7977
v  1.5768 0.1882 -0.9084
v  0.9104 -0.1882 -1.5748
v  0.9788 0.0000 -1.6933
v  0.7997 -0.1163 -1.3832
v  0.7997 0.1163 -1.3832
v  0.9104 0.1882 -1.5748
v  -0.0000 -0.1882 -1.8188
v  -0.0000 0.0000 -1.9555
v  -0.0000 -0.1163 -1.5975
v  -0.0000 0.1163 -1.5975
v  -0.0000 0.1882 -1.8188
v  -0.9104 -0.1882 -1.5748
v  -0.9787 0.0000 -1.6933
v  -0.7997 -0.1163 -1.3832
v  -0.7997 0.1163 -1.3832
v  -0.9104 0.1882 -1.5748
v  -1.5768 -0.1882 -0.9084
v  -1.6953 0.0000 -0.9768
v  -1.3852 -0.1163 -0.7977
v  -1.3852 0.1163 -0.7977
v  -1.5768 0.1882 -0.9084
v  -1.8207 -0.1882 0.0020
v  -1.9575 0.0000 0.0020
v  -1.5994 -0.1163 0.0020
v  -1.5994 0.1163 0.0020
v  -1.8207 0.1882 0.0020
v  -1.5768 -0.1882 0.9124
v  -1.6953 0.0000 0.9807
v  -1.3852 -0.1163 0.8017
v  -1.3852 0.1163 0.8017
v  -1.5768 0.1882 0.9124
v  -0.9104 -0.1882 1.5788
v  -0.9787 0.0000 1.6973
v  -0.7997 -0.1163 1.3872
v  -0.7997 0.1163 1.3872
v  -0.9104 0.1882 1.5788
# 60 vertices

vn 0.0000 -0.9200 0.3919
vn 0.1960 -0.9200 0.3394
vn 0.5000 0.0000 0.8660
vn 0.0000 0.0000 1.0000
vn 0.0000 -0.6387 -0.7695
vn -0.3847 -0.6387 -0.6664
vn 0.0000 0.6387 -0.7695
vn -0.3847 0.6387 -0.6664
vn 0.0000 0.9200 0.3919
vn 0.1960 0.9200 0.3394
vn 0.3394 -0.9200 0.1960
vn 0.8660 0.0000 0.5000
vn -0.6664 -0.6387 -0.3847
vn -0.6664 0.6387 -0.3847
vn 0.3394 0.9200 0.1960
vn 0.3919 -0.9200 0.0000
vn 1.0000 0.0000 0.0000
vn -0.7695 -0.6387 0.0000
vn -0.7695 0.6387 0.0000
vn 0.3919 0.9200 0.0000
vn 0.3394 -0.9200 -0.1960
vn 0.8660 0.0000 -0.5000
vn -0.6664 -0.6387 0.3847
vn -0.6664 0.6387 0.3847
vn 0.3394 0.9200 -0.1960
vn 0.1960 -0.9200 -0.3394
vn 0.5000 0.0000 -0.8660
vn -0.3847 -0.6387 0.6664
vn -0.3847 0.6387 0.6664
vn 0.1960 0.9200 -0.3394
vn 0.0000 -0.9200 -0.3919
vn 0.0000 0.0000 -1.0000
vn 0.0000 -0.6387 0.7695
vn 0.0000 0.6387 0.7695
vn 0.0000 0.9200 -0.3919
vn -0.1960 -0.9200 -0.3394
vn -0.5000 0.0000 -0.8660
vn 0.3847 -0.6387 0.6664
vn 0.3847 0.6387 0.6664
vn -0.1960 0.9200 -0.3394
vn -0.3394 -0.9200 -0.1960
vn -0.8660 0.0000 -0.5000
vn 0.6664 -0.6387 0.3847
vn 0.6664 0.6387 0.3847
vn -0.3394 0.9200 -0.1960
vn -0.3919 -0.9200 0.0000
vn -1.0000 0.0000 0.0000
vn 0.7695 -0.6387 0.0000
vn 0.7695 0.6387 0.0000
vn -0.3919 0.9200 0.0000
vn -0.3394 -0.9200 0.1960
vn -0.8660 0.0000 0.5000
vn 0.6664 -0.6387 -0.3847
vn 0.6664 0.6387 -0.3847
vn -0.3394 0.9200 0.1960
vn -0.1960 -0.9200 0.3394
vn -0.5000 0.0000 0.8660
vn 0.3847 -0.6387 -0.6664
vn 0.3847 0.6387 -0.6664
vn -0.1960 0.9200 0.3394
# 60 vertex normals

vt 0.2000 0.0000 0.0000
vt 0.2000 0.0833 0.0000
vt 0.0000 0.0833 0.0000
vt 0.0000 0.0000 0.0000
vt 0.4000 0.0000 0.0000
vt 0.4000 0.0833 0.0000
vt 0.6000 0.0000 0.0000
vt 0.6000 0.0833 0.0000
vt 0.8000 0.0000 0.0000
vt 0.8000 0.0833 0.0000
vt 1.0000 0.0000 0.0000
vt 1.0000 0.0833 0.0000
vt 0.2000 0.1667 0.0000
vt 0.0000 0.1667 0.0000
vt 0.4000 0.1667 0.0000
vt 0.6000 0.1667 0.0000
vt 0.8000 0.1667 0.0000
vt 1.0000 0.1667 0.0000
vt 0.2000 0.2500 0.0000
vt 0.0000 0.2500 0.0000
vt 0.4000 0.2500 0.0000
vt 0.6000 0.2500 0.0000
vt 0.8000 0.2500 0.0000
vt 1.0000 0.2500 0.0000
vt 0.2000 0.3333 0.0000
vt 0.0000 0.3333 0.0000
vt 0.4000 0.3333 0.0000
vt 0.6000 0.3333 0.0000
vt 0.8000 0.3333 0.0000
vt 1.0000 0.3333 0.0000
vt 0.2000 0.4167 0.0000
vt 0.0000 0.4167 0.0000
vt 0.4000 0.4167 0.0000
vt 0.6000 0.4167 0.0000
vt 0.8000 0.4167 0.0000
vt 1.0000 0.4167 0.0000
vt 0.2000 0.5000 0.0000
vt 0.0000 0.5000 0.0000
vt 0.4000 0.5000 0.0000
vt 0.6000 0.5000 0.0000
vt 0.8000 0.5000 0.0000
vt 1.0000 0.5000 0.0000
vt 0.2000 0.5833 0.0000
vt 0.0000 0.5833 0.0000
vt 0.4000 0.5833 0.0000
vt 0.6000 0.5833 0.0000
vt 0.8000 0.5833 0.0000
vt 1.0000 0.5833 0.0000
vt 0.2000 0.6667 0.0000
vt 0.0000 0.6667 0.0000
vt 0.4000 0.6667 0.0000
vt 0.6000 0.6667 0.0000
vt 0.8000 0.6667 0.0000
vt 1.0000 0.6667 0.0000
vt 0.2000 0.7500 0.0000
vt 0.0000 0.7500 0.0000
vt 0.4000 0.7500 0.0000
vt 0.6000 0.7500 0.0000
vt 0.8000 0.7500 0.0000
vt 1.0000 0.7500 0.0000
vt 0.2000 0.8333 0.0000
vt 0.0000 0.8333 0.0000
vt 0.4000 0.8333 0.0000
vt 0.6000 0.8333 0.0000
vt 0.8000 0.8333 0.0000
vt 1.0000 0.8333 0.0000
vt 0.2000 0.9167 0.0000
vt 0.0000 0.9167 0.0000
vt 0.4000 0.9167 0.0000
vt 0.6000 0.9167 0.0000
vt 0.8000 0.9167 0.0000
vt 1.0000 0.9167 0.0000
vt 0.2000 1.0000 0.0000
vt 0.0000 1.0000 0.0000
vt 0.4000 1.0000 0.0000
vt 0.6000 1.0000 0.0000
vt 0.8000 1.0000 0.0000
vt 1.0000 1.0000 0.0000
# 78 texture coords

g Torus001
s 1
f 1/1/1 2/2/2 3/3/3 4/4/4 
f 5/5/5 6/6/6 2/2/2 1/1/1 
f 7/7/7 8/8/8 6/6/6 5/5/5 
f 9/9/9 10/10/10 8/8/8 7/7/7 
f 4/11/4 3/12/3 10/10/10 9/9/9 
f 2/2/2 11/13/11 12/14/12 3/3/3 
f 6/6/6 13/15/13 11/13/11 2/2/2 
f 8/8/8 14/16/14 13/15/13 6/6/6 
f 10/10/10 15/17/15 14/16/14 8/8/8 
f 3/12/3 12/18/12 15/17/15 10/10/10 
f 11/13/11 16/19/16 17/20/17 12/14/12 
f 13/15/13 18/21/18 16/19/16 11/13/11 
f 14/16/14 19/22/19 18/21/18 13/15/13 
f 15/17/15 20/23/20 19/22/19 14/16/14 
f 12/18/12 17/24/17 20/23/20 15/17/15 
f 16/19/16 21/25/21 22/26/22 17/20/17 
f 18/21/18 23/27/23 21/25/21 16/19/16 
f 19/22/19 24/28/24 23/27/23 18/21/18 
f 20/23/20 25/29/25 24/28/24 19/22/19 
f 17/24/17 22/30/22 25/29/25 20/23/20 
f 21/25/21 26/31/26 27/32/27 22/26/22 
f 23/27/23 28/33/28 26/31/26 21/25/21 
f 24/28/24 29/34/29 28/33/28 23/27/23 
f 25/29/25 30/35/30 29/34/29 24/28/24 
f 22/30/22 27/36/27 30/35/30 25/29/25 
f 26/31/26 31/37/31 32/38/32 27/32/27 
f 28/33/28 33/39/33 31/37/31 26/31/26 
f 29/34/29 34/40/34 33/39/33 28/33/28 
f 30/35/30 35/41/35 34/40/34 29/34/29 
f 27/36/27 32/42/32 35/41/35 30/35/30 
f 31/37/31 36/43/36 37/44/37 32/38/32 
f 33/39/33 38/45/38 36/43/36 31/37/31 
f 34/40/34 39/46/39 38/45/38 33/39/33 
f 35/41/35 40/47/40 39/46/39 34/40/34 
f 32/42/32 37/48/37 40/47/40 35/41/35 
f 36/43/36 41/49/41 42/50/42 37/44/37 
f 38/45/38 43/51/43 41/49/41 36/43/36 
f 39/46/39 44/52/44 43/51/43 38/45/38 
f 40/47/40 45/53/45 44/52/44 39/46/39 
f 37/48/37 42/54/42 45/53/45 40/47/40 
f 41/49/41 46/55/46 47/56/47 42/50/42 
f 43/51/43 48/57/48 46/55/46 41/49/41 
f 44/52/44 49/58/49 48/57/48 43/51/43 
f 45/53/45 50/59/50 49/58/49 44/52/44 
f 42/54/42 47/60/47 50/59/50 45/53/45 
f 46/55/46 51/61/51 52/62/52 47/56/47 
f 48/57/48 53/63/53 51/61/51 46/55/46 
f 49/58/49 54/64/54 53/63/53 48/57/48 
f 50/59/50 55/65/55 54/64/54 49/58/49 
f 47/60/47 52/66/52 55/65/55 50/59/50 
f 51/61/51 56/67/56 57/68/57 52/62/52 
f 53/63/53 58/69/58 56/67/56 51/61/51 
f 54/64/54 59/70/59 58/69/58 53/63/53 
f 55/65/55 60/71/60 59/70/59 54/64/54 
f 52/66/52 57/72/57 60/71/60 55/65/55 
f 56/67/56 1/73/1 4/74/4 57/68/57 
f 58/69/58 5/75/5 1/73/1 56/67/56 
f 59/70/59 7/76/7 5/75/5 58/69/58 
f 60/71/60 9/77/9 7/76/7 59/70/59 
f 57/72/57 4/78/4 9/77/9 60/71/60 
# 60 polygons

